# xmcd CD database file
#
# Track frame offsets:
#	150
#	18644
#	30823
#	46183
#	65797
#	84335
#
# Disc length: 1465 seconds
#
# Revision: 0
# Processed by: cddbd v1.5.2PL0 Copyright (c) Steve Scherf et al.
# Submitted via: CDex 1.79
#
DISCID=3f05b706
DTITLE=Wawau Adler and Joelle Locher - Songs for guitar and bass
DYEAR=2009
DGENRE=Jazz
TTITLE0=Lately
TTITLE1=Days of wine an roses
TTITLE2=Let's fall in love
TTITLE3=In a sentimental mood
TTITLE4=For Stephan
TTITLE5=My one and only love
EXTD=YEAR: 2009
EXTT0=
EXTT1=
EXTT2=
EXTT3=
EXTT4=
EXTT5=
PLAYORDER=
